<svg id="icon-spritesheet" data-name="tabularasa-sprites" xmlns="http://www.w3.org/2000/svg" xmlns:xlink="http://www.w3.org/1999/xlink" viewBox="0 0 776 137.9" style="display: none;">
	<title>icon-spritesheet</title>
	<symbol id="instagram" viewBox="0 0 70 70">
		<path d="M0,38.1c0-6.3,0-12.6,0-18.9c0-0.2,0.1-0.4,0.1-0.5c0.1-2.2,0.2-4.4,0.7-6.6C2,7.2,4.9,3.7,9.5,1.6
				c2.5-1.1,5.2-1.4,7.9-1.5C18,0.1,18.6,0,19.2,0c6.3,0,12.6,0,18.9,0c0.2,0,0.4,0.1,0.5,0.1c2.2,0.1,4.4,0.2,6.6,0.7
				c4.9,1.2,8.4,4.1,10.4,8.7c1.1,2.5,1.4,5.2,1.5,7.9c0,0.6,0.1,1.2,0.1,1.8c0,6.3,0,12.6,0,18.9c0,0.2-0.1,0.4-0.1,0.5
				c-0.1,2.2-0.2,4.4-0.7,6.6c-1.2,4.9-4.1,8.4-8.7,10.5c-2.5,1.1-5.2,1.4-7.9,1.5c-0.6,0-1.2,0.1-1.8,0.1c-6.3,0-12.6,0-18.9,0
				c-0.2,0-0.4-0.1-0.5-0.1c-2.2-0.1-4.4-0.2-6.6-0.7c-4.9-1.2-8.4-4.1-10.5-8.7c-1.1-2.5-1.4-5.2-1.5-7.9C0.1,39.3,0,38.7,0,38.1z
				 M52.2,28.7C52.2,28.7,52.2,28.7,52.2,28.7c-0.1-2.4,0-4.8-0.1-7.2c-0.1-2.3-0.1-4.5-0.4-6.7c-0.2-2.1-1-4.1-2.4-5.8
				c-2-2.3-4.7-3.3-7.6-3.5c-3.4-0.2-6.7-0.3-10.1-0.3c-3.4,0-6.7,0-10.1,0c-2.3,0-4.5,0.1-6.7,0.4C12.6,5.8,10.6,6.6,9,8
				c-2.3,2-3.3,4.7-3.5,7.6C5.3,19,5.2,22.4,5.2,25.8c0,3.4,0,6.7,0,10.1c0,2.3,0.1,4.5,0.4,6.7c0.2,2.1,1,4.1,2.4,5.8
				c2,2.3,4.7,3.3,7.6,3.5c3.4,0.2,6.7,0.3,10.1,0.3c3.4,0,6.7,0,10.1,0c2.5-0.1,5-0.1,7.4-0.5c4.2-0.7,7-3.1,8.1-7.2
				c0.4-1.3,0.6-2.8,0.6-4.1C52.1,36.4,52.1,32.5,52.2,28.7z"/>
		<path d="M43.4,28.7c0,8.2-6.6,14.7-14.8,14.7c-8.1,0-14.7-6.6-14.7-14.7c0-8.2,6.6-14.7,14.8-14.7C36.8,14,43.4,20.5,43.4,28.7z
				 M28.7,38.2c5.2,0,9.5-4.3,9.5-9.4c0-5.3-4.2-9.6-9.4-9.6c-5.3,0-9.6,4.2-9.6,9.5C19.1,33.9,23.4,38.2,28.7,38.2z"/>
		<path d="M44,9.9c1.9,0,3.5,1.5,3.5,3.4c0,1.9-1.5,3.5-3.5,3.5c-1.9,0-3.5-1.6-3.5-3.5C40.5,11.5,42.1,9.9,44,9.9z"/>
	</symbol>
	<symbol id="youtube" viewBox="70 0 70 70">
	    <path d="M134.17,36.17a7,7,0,0,0-6-5.45,186.35,186.35,0,0,0-20.77-.77,186.41,186.41,0,0,0-20.77.77,7,7,0,0,0-6,5.45,59.39,59.39,0,0,0-1,13.11c0,4.33,0,8.91,1,13.11a7,7,0,0,0,6,5.45,186.37,186.37,0,0,0,20.77.77,186.23,186.23,0,0,0,20.77-.77,7,7,0,0,0,6-5.45c1-4.2,1-8.79,1-13.11S135.14,40.37,134.17,36.17ZM95.49,39.42h-4V60.75H87.74V39.42H83.8V35.93H95.49Zm10.13,21.33h-3.35v-2c-1.33,1.53-2.6,2.27-3.83,2.27a2.06,2.06,0,0,1-2.16-1.37,9.44,9.44,0,0,1-.3-2.75V42.26h3.35V55.88a10.44,10.44,0,0,0,0,1.3c.08.52.33.78.78.78.67,0,1.38-.52,2.12-1.57V42.26h3.35v18.5Zm12.73-5.55a14.78,14.78,0,0,1-.34,3.73A2.65,2.65,0,0,1,115.33,61a4.57,4.57,0,0,1-3.46-2v1.79h-3.35V35.93h3.35V44a4.54,4.54,0,0,1,3.46-2A2.65,2.65,0,0,1,118,44.12a14.21,14.21,0,0,1,.34,3.72ZM131,52.12h-6.7V55.4c0,1.71.56,2.57,1.71,2.57a1.44,1.44,0,0,0,1.5-1.34,21.09,21.09,0,0,0,.08-2.27H131v.49c0,1.08,0,1.82-.07,2.16a4.78,4.78,0,0,1-.78,2,4.64,4.64,0,0,1-4.05,2A4.8,4.8,0,0,1,122,59.12,7.17,7.17,0,0,1,121,54.77V48.29a7.2,7.2,0,0,1,1-4.36,4.77,4.77,0,0,1,4-1.9,4.66,4.66,0,0,1,4,1.9,7.27,7.27,0,0,1,1,4.36v3.83Z" transform="translate(-2.67 -2.84)"/>
	    <path d="M126,45q-1.68,0-1.68,2.57v1.71h3.35V47.61C127.65,45.9,127.09,45,126,45Z" transform="translate(-2.67 -2.84)"/>
	    <path d="M113.54,45a2.4,2.4,0,0,0-1.67.82V57.14a2.39,2.39,0,0,0,1.67.83c1,0,1.46-.83,1.46-2.5v-7.9C115,45.9,114.51,45,113.54,45Z" transform="translate(-2.67 -2.84)"/>
	    <path d="M115.41,28.24c1.24,0,2.52-.75,3.87-2.3v2h3.39V9.29h-3.39V23.58c-.75,1.06-1.46,1.59-2.14,1.59-.45,0-.72-.27-.79-.79a7.86,7.86,0,0,1,0-1.32V9.29h-3.38V24.07a9.44,9.44,0,0,0,.3,2.78A2.08,2.08,0,0,0,115.41,28.24Z" transform="translate(-2.67 -2.84)"/>
	    <path d="M91.83,17.83V28h3.76V17.83L100.1,2.9h-3.8l-2.56,9.85L91.08,2.9h-4c.79,2.33,1.62,4.66,2.41,7A61.8,61.8,0,0,1,91.83,17.83Z" transform="translate(-2.67 -2.84)"/>
	    <path d="M105.14,28.24a4.62,4.62,0,0,0,4-1.91,7.31,7.31,0,0,0,1.05-4.4V15.39a7.33,7.33,0,0,0-1.05-4.4,5,5,0,0,0-7.9,0,7.27,7.27,0,0,0-1.06,4.4v6.55a7.25,7.25,0,0,0,1.06,4.4A4.62,4.62,0,0,0,105.14,28.24Zm-1.62-13.54c0-1.73.52-2.59,1.62-2.59s1.62.86,1.62,2.59v7.86c0,1.73-.52,2.59-1.62,2.59s-1.62-.87-1.62-2.59Z" transform="translate(-2.67 -2.84)"/>
	  </symbol>
  	<symbol id="twitter" viewBox="140 0 70 70">
		<path d="M213.8,15.3a28.74,28.74,0,0,1-7.9,2.19A13.67,13.67,0,0,0,212,9.89a27.68,27.68,0,0,1-8.77,3.36,13.62,13.62,0,0,0-10.09-4.39,13.85,13.85,0,0,0-13.82,13.82,14.8,14.8,0,0,0,.37,3.14,39.21,39.21,0,0,1-28.44-14.4,13.74,13.74,0,0,0,4.24,18.42,12.79,12.79,0,0,1-6.21-1.75v.15a13.81,13.81,0,0,0,11,13.53,14.71,14.71,0,0,1-3.66.51,16,16,0,0,1-2.63-.22,13.77,13.77,0,0,0,12.87,9.58,27.58,27.58,0,0,1-17.11,5.92,24.86,24.86,0,0,1-3.29-.22,38.91,38.91,0,0,0,21.13,6.21c25.37,0,39.26-21.06,39.26-39.26a14.07,14.07,0,0,0-.07-1.75A30,30,0,0,0,213.8,15.3Z" transform="translate(-2.67 -2.84)"/>
	</symbol>
  	<symbol id="map-marker" viewBox="216 0 70 70">
		<path d="M251.61,37.51a10,10,0,1,1,10-10h0a10,10,0,0,1-10,10h0m0-31.93a22.07,22.07,0,0,0-21.94,22.16h0c0,11.51,10,26.28,16.51,33.67,2.39,2.61,5.43,6.3,5.43,6.3s3-3.69,5.65-6.52c6.73-7,16.07-20.85,16.07-33.45A21.74,21.74,0,0,0,251.61,5.58h0" transform="translate(-2.67 -2.84)"/>
	</symbol>
  	<symbol id="facebook" viewBox="288 0 70 70">
		<path class="f" d="M339.33,14.28H328.85c-1.25,0-2.64,1.61-2.64,3.81v7.55h13.13V36.43H326.21V68.84H313.89V36.5H302.67V25.72h11.22V19.34c0-9.09,6.31-16.5,15-16.5h10.49Z" transform="translate(-2.67 -2.84)"/>
	</symbol>
  	<symbol id="envelope" viewBox="360 0 70 70">
		<path d="M363.08,58.95V25.44a12.24,12.24,0,0,1,1.07.67c6.16,4.43,12.23,9,18.49,13.2,3.58,2.43,7.44,4.4,11.23,6.52a3.85,3.85,0,0,0,3.58.05c1.61-.74,3.27-1.46,4.81-2.35,8.47-5,16.27-10.87,24.07-16.78.64-.49,1.33-.87,2-1.3V58.69c-1.53,3.66-2.71,4.43-6.78,4.43-17.32,0-34.66-.05-52,0C366.3,63.17,364.15,62,363.08,58.95Z" transform="translate(-2.67 -2.84)"/>
		<path d="M428.31,13.41V17c-1.64,1.28-3.27,2.56-4.94,3.84A244.76,244.76,0,0,1,400.5,36.9a8.35,8.35,0,0,1-9.59,0c-9.82-6-18.83-13-27.83-20.13V13.16c1-3.1,3.25-4.25,6.45-4.22,17.39.08,34.76,0,52.13,0,.51,0,1,0,1.53,0a5.14,5.14,0,0,1,4.68,3.38C428,12.72,428.15,13.08,428.31,13.41Z" transform="translate(-2.67 -2.84)"/>
	</symbol>
	<symbol id="phone" viewBox="431 0 70 70">
		<path d="M471.62,40.26c-5.94,5.93-12.82,11.61-15.54,8.89-3.89-3.89-6.29-7.28-14.87-.38S439.22,60.26,443,64c4.35,4.35,20.57.23,36.6-15.8S499.73,16,495.37,11.63C491.6,7.85,487,1.27,480.13,9.84s-3.51,11,.39,14.87C483.23,27.44,477.55,34.32,471.62,40.26Z" transform="translate(-2.67 -2.84)"/>
	</symbol>
	<symbol id="down-arrow" viewBox="504 0 70 70">
		<path d="M510.71,25.55c2.36-2.41,5.63-2.6,8.51,0l21.11,20.24,21.11-20.24c2.88-2.6,6.16-2.41,8.5,0a6.42,6.42,0,0,1,0,8.73c-2.19,2.26-25.36,24.32-25.36,24.32a5.91,5.91,0,0,1-8.51,0s-23.16-22.06-25.36-24.32A6.41,6.41,0,0,1,510.71,25.55Z" transform="translate(-2.67 -2.84)"/>
	</symbol>
	<symbol id="down-arrow-light" viewBox="576 0 70 70">
		<path d="M637.49,23.07a2.43,2.43,0,0,1,3.41,0,2.37,2.37,0,0,1,0,3.38L613.34,53.73a2.43,2.43,0,0,1-3.41,0L582.37,26.44a2.37,2.37,0,0,1,0-3.38,2.43,2.43,0,0,1,3.41,0L611.64,48Z" transform="translate(-2.67 -2.84)"/>
	</symbol>
	<symbol id="close" viewBox="648 0 70 70">
		<path d="M706.66,62.11a6.36,6.36,0,0,1-9,0L683.6,46,669.54,62.11a6.36,6.36,0,1,1-9-9L675.17,36.4,660.53,19.68a6.36,6.36,0,0,1,9-9L683.6,26.76l14.06-16.08a6.36,6.36,0,1,1,9,9L692,36.4l14.63,16.71A6.37,6.37,0,0,1,706.66,62.11Z" transform="translate(-2.67 -2.84)"/>
	</symbol>
	<symbol id="houzz" viewBox="720 0 70 70">
		<path d="M737.91,36.81,758.29,47,737.91,57.19Zm20.38-10.19,20.38,10.19V16.43Zm0,44.16,20.38-10.19V36.81L758.29,47Zm0-67.93L737.91,13V36.81l20.38-10.19Z" transform="translate(-2.67 -2.84)"/>
	</symbol>
	<symbol id="linkedin" viewBox="0 72 70 70">
		<path d="M19.7,85.19a6.15,6.15,0,0,1-6.52,6.52,6.27,6.27,0,0,1-6.52-6.19,6.61,6.61,0,0,1,6.52-6.84A6.34,6.34,0,0,1,19.7,85.19Zm-13,52.15h13V95h-13ZM51,95.61a14.27,14.27,0,0,0-12.39,6.52h-.33l-.65-5.54H25.9c0,3.59.33,7.82.33,12.71v28h13V114.19a10,10,0,0,1,.33-3.26c1-2.28,2.61-5.21,6.19-5.21,4.56,0,6.52,3.91,6.52,9.13v22.49h13V113.21C65.33,101.16,59.14,95.61,51,95.61Z" transform="translate(-2.67 -2.84)"/>
	</symbol>
	<symbol id="menu" viewBox="72 72 70 70">
		<path d="M136,102.69H80.79c-2.38,0-2.59,1.93-2.59,4.31s.21,4.31,2.59,4.31H136c2.38,0,2.59-1.93,2.59-4.31S138.39,102.69,136,102.69Zm0,17.26H80.79c-2.38,0-2.59,1.93-2.59,4.31s.21,4.31,2.59,4.31H136c2.38,0,2.59-1.93,2.59-4.31S138.39,119.94,136,119.94ZM80.79,94.06H136c2.38,0,2.59-1.93,2.59-4.31s-.21-4.31-2.59-4.31H80.79c-2.38,0-2.59,1.93-2.59,4.31S78.41,94.06,80.79,94.06Z" transform="translate(-2.67 -2.84)"/>
	</symbol>
	<symbol id="pinterest" viewBox="144 72 70 70">
		<path d="M179.6,79.07a29.13,29.13,0,1,0,29.13,29.13A29.13,29.13,0,0,0,179.6,79.07Zm2,36c-1.87-.14-2.65-1.07-4.12-2-.8,4.22-1.79,8.27-4.7,10.38-.9-6.39,1.32-11.17,2.35-16.26-1.76-3,.21-8.91,3.92-7.45,4.56,1.81-4,11,1.76,12.15,6,1.2,8.4-10.35,4.7-14.11-5.35-5.42-15.56-.12-14.3,7.64.3,1.9,2.27,2.47.78,5.09-3.42-.76-4.44-3.46-4.31-7.05.21-5.89,5.29-10,10.38-10.58,6.44-.72,12.49,2.36,13.33,8.43C192.33,108.24,188.48,115.64,181.59,115.1Z" transform="translate(-2.67 -2.84)"/>
	</symbol>
	<symbol id="plus" viewBox="216 72 70 70">
		<path d="M283.33,107.7c0,2.89-.25,5.23-3.14,5.23h-23v23c0,2.89-2.34,3.14-5.23,3.14s-5.23-.26-5.23-3.14v-23h-23c-2.89,0-3.14-2.34-3.14-5.23s.26-5.23,3.14-5.23h23v-23c0-2.89,2.34-3.14,5.23-3.14s5.23.25,5.23,3.14v23h23C283.08,102.47,283.33,104.81,283.33,107.7Z" transform="translate(-2.67 -2.84)"/>
	</symbol>
	<symbol id="share" viewBox="288 72 70 70">
		<path d="M344.22,121.7a9.47,9.47,0,0,0-6.42,2.52l-23.28-13.58a9,9,0,0,0,0-4.58l23-13.45a9.78,9.78,0,1,0-3.14-7.16,9.59,9.59,0,0,0,.29,2.29l-23,13.45a9.8,9.8,0,1,0,0,14.31L335,129.08a9.17,9.17,0,0,0-.26,2.14,9.52,9.52,0,1,0,9.52-9.52Z" transform="translate(-2.67 -2.84)"/>
	</symbol>
	<symbol id="tripadvisor" viewBox="360 72 70 70">
		<path d="M425.21,95.62h-8.34c-5.78-3.94-12.86-5.93-21.16-5.93s-15.38,2-21.16,5.93h-8.34a14.31,14.31,0,0,1,2.93,6,14.62,14.62,0,0,0-2.93,8.73,14.71,14.71,0,0,0,24.85,10.69l4.65,7,4.65-7a14.7,14.7,0,0,0,21.92-19.43A14.31,14.31,0,0,1,425.21,95.62ZM381,120.4a10,10,0,1,1,10-10A10,10,0,0,1,381,120.4Zm14.75-10a14.77,14.77,0,0,0-11.83-14.45,39.8,39.8,0,0,1,23.65,0A14.77,14.77,0,0,0,395.71,110.37Zm14.75,10a10,10,0,1,1,10-10A10,10,0,0,1,410.46,120.4ZM381,104a6.34,6.34,0,1,0,6.34,6.34A6.35,6.35,0,0,0,381,104Zm0,8.23a1.92,1.92,0,1,1,1.92-1.92A1.92,1.92,0,0,1,381,112.26Zm29.5-8.23a6.34,6.34,0,1,0,6.34,6.34A6.35,6.35,0,0,0,410.46,104Zm0,8.23a1.92,1.92,0,1,1,1.92-1.92A1.92,1.92,0,0,1,410.46,112.26Z" transform="translate(-2.67 -2.84)"/>
	</symbol>
	<symbol id="vimeo" viewBox="432 72 70 70">
		<path d="M468.19,79.2A29.81,29.81,0,1,0,498,109,29.8,29.8,0,0,0,468.19,79.2Zm13.66,24.06c-1.58,9.05-10.39,16.73-13,18.48s-5.07-.7-5.95-2.56c-1-2.12-4-13.58-4.8-14.53s-3.15,1-3.15,1l-1.15-1.53s4.8-5.85,8.46-6.57c3.87-.78,3.87,6.06,4.8,9.85s1.51,5.77,2.29,5.77,2.29-2,3.94-5.18S473.19,102,470,104C471.25,96.11,483.44,94.21,481.86,103.26Z" transform="translate(-2.67 -2.84)"/>
	</symbol>
	<symbol id="youtube-2" viewBox="504 68 70 70">
		<path d="M540,81.41c-33.95,0-34.54,3-34.54,26.6s.59,26.6,34.54,26.6,34.54-3,34.54-26.6S573.95,81.41,540,81.41Zm11.07,27.75-15.51,7.24a1.61,1.61,0,0,1-2.47-1.58V101.19a1.61,1.61,0,0,1,2.47-1.58l15.51,7.24C552.43,107.49,552.43,108.52,551.07,109.16Z" transform="translate(-2.67 -2.84)"/>
	</symbol>
	<symbol id="next" viewBox="576 72 70 70">
		<path d="M645.2,106.4c0,0-13.7-14.4-15.1-15.7c-1.4-1.4-3.9-1.5-5.4,0c-1.5,1.4-1.6,3.5,0,5.3l8.8,9.2
		c-17.4,0-34.8,0-52.2,0c-5,0-5,7.7,0,7.7c17.4,0,34.8,0,52.1,0l-8.8,9.2c-1.6,1.8-1.5,3.8,0,5.3c1.5,1.5,4,1.4,5.4,0
		c1.4-1.4,15.1-15.7,15.1-15.7c0.7-0.7,1.1-1.7,1.1-2.6C646.3,108,645.9,107.1,645.2,106.4z" transform="translate(-2.67 -2.84)"/>
	</symbol>
	<symbol id="previous" viewBox="648 72 70 70">
		<path d="M650.8,111.6c0,0,13.7,14.4,15.1,15.7c1.4,1.4,3.9,1.5,5.4,0c1.5-1.4,1.6-3.5,0-5.3l-8.8-9.2 c17.4,0,34.8,0,52.2,0c5,0,5-7.7,0-7.7c-17.4,0-34.8,0-52.1,0l8.8-9.2c1.6-1.8,1.5-3.8,0-5.3c-1.5-1.5-4-1.4-5.4,0 c-1.4,1.4-15.1,15.7-15.1,15.7c-0.7,0.7-1.1,1.7-1.1,2.6S650.1,110.9,650.8,111.6z" transform="translate(-2.67 -2.84)"/>
	</symbol>
	<symbol id="facebook-box" viewBox="720 72 70 70">
		<path d="M784.4,76.6h-48.9c-3.8,0-7,3.1-7,7v48.9c0,3.8,3.1,7,7,7H760V115h-7v-8.6h7v-7.2c0-7.6,4.2-12.9,13.1-12.9
		l6.3,0v9.1h-4.2c-3.5,0-4.8,2.6-4.8,5v5.9h9l-2,8.6h-7v24.4h14c3.8,0,7-3.1,7-7V83.6C791.4,79.7,788.3,76.6,784.4,76.6z"/>
	</symbol>
	<symbol id="star" viewBox="0 144 70 70">
		<path d="M35.8,147.9l8.5,24h22.9L48.6,186l6.7,24.8l-19.4-14.8l-19.4,14.8l6.7-24.8L4.4,171.9h22.9L35.8,147.9z"/>
	</symbol>
</svg>