<?xml version="1.0" encoding="utf-8"?>
<!-- Generator: Adobe Illustrator 19.1.0, SVG Export Plug-In . SVG Version: 6.00 Build 0)  -->
<svg version="1.1" id="Layer_1" xmlns="http://www.w3.org/2000/svg" xmlns:xlink="http://www.w3.org/1999/xlink" x="0px" y="0px"
	 viewBox="0 0 255 212" style="enable-background:new 0 0 255 212;" xml:space="preserve">
<g id="RErdGX.tif">
	<g>
		<g>
			<path d="M0,195.5c0-43.7,0-87.3,0-131c1.4,0.8,2.8,1.6,4.2,2.6c24.1,17.3,47.8,35,72.3,51.6c14,9.5,29.1,17.2,43.9,25.5
				c4.4,2.5,9.4,2.3,14,0.2c6.3-2.9,12.8-5.7,18.8-9.2c33.1-19.4,63.6-42.5,94.1-65.6c2.5-1.9,5.2-3.4,7.8-5.1c0,43.3,0,86.7,0,130
				c-6,14.3-10.6,17.3-26.5,17.3c-67.7,0-135.5-0.2-203.2,0.1C12.6,212,4.2,207.5,0,195.5z"/>
			<path d="M255,17.5c0,4.7,0,9.3,0,14c-6.4,5-12.8,10-19.3,15c-29,22.1-58,44.1-89.4,62.8c-13,7.8-24.4,7.9-37.5-0.1
				C70.4,85.8,35.2,58.2,0,30.5c0-4.7,0-9.3,0-14C4.1,4.4,12.7-0.1,25.2,0C93.2,0.3,161.1,0.1,229,0.1c2,0,4,0,6,0.1
				c8.9,0.5,14.8,5.2,18.3,13.2C253.9,14.8,254.4,16.2,255,17.5z"/>
		</g>
	</g>
</g>
</svg>
