<svg id="3c13c41d-0915-4b2b-a086-493fe6698874" data-name="Layer 1" xmlns="http://www.w3.org/2000/svg" viewBox="0 0 772 138">
  <title>icon-spritesheet</title>
  <g>
    <path d="M134,36a7,7,0,0,0-6-5H87a7,7,0,0,0-6,5,59,59,0,0,0-1,13c0,4,0,9,1,13a7,7,0,0,0,6,5h42a7,7,0,0,0,6-5c1-4,1-9,1-13S135,40,134,36ZM95,39H91V61H88V39H84V36H95Zm10,21h-3V59l-4,2H96a9,9,0,0,1,0-3V42h3V56a10,10,0,0,0,0,1h1l2-2V42h3V61Zm13-6a15,15,0,0,1,0,4,3,3,0,0,1-3,2l-3-2v2h-3V36h3v8l3-2a3,3,0,0,1,3,2,14,14,0,0,1,0,4Zm13-3h-7v3c0,2,1,3,2,3h1a21,21,0,0,0,0-2h3c0,1,0,2,0,2v2l-4,2-4-2a7,7,0,0,1-1-4V48a7,7,0,0,1,1-4l4-2,4,2a7,7,0,0,1,1,4v4Z" transform="translate(-7 -3)" style="fill: #010101"/>
    <path d="M126,45q-2,0-2,3v2h3V48C128,46,127,45,126,45Z" transform="translate(-7 -3)" style="fill: #010101"/>
    <path d="M114,45h-2V57h2c1,0,1-1,1-2V48C115,46,115,45,114,45Z" transform="translate(-7 -3)" style="fill: #010101"/>
    <path d="M115,28l4-2v2h3V9h-3V24l-2,2h-1a8,8,0,0,1,0-1V9h-3V24a9,9,0,0,0,0,3Z" transform="translate(-7 -3)" style="fill: #010101"/>
    <path d="M92,18V28h4V18l5-15H96L94,13,91,3H87l2,7Z" transform="translate(-7 -3)" style="fill: #010101"/>
    <path d="M105,28l4-2a7,7,0,0,0,1-4V15a7,7,0,0,0-1-4l-4-2-4,2a7,7,0,0,0-1,4v7a7,7,0,0,0,1,4Zm-2-14c0-2,1-3,2-3s2,1,2,3v8c0,2-1,3-2,3s-2-1-2-3Z" transform="translate(-7 -3)" style="fill: #010101"/>
  </g>
  <path d="M214,15l-8,2a14,14,0,0,0,6-8l-9,3a14,14,0,0,0-10-4,14,14,0,0,0-14,14,15,15,0,0,0,0,3,39,39,0,0,1-28-14,14,14,0,0,0,4,18l-6-2h0a14,14,0,0,0,11,14h-6a14,14,0,0,0,13,10,28,28,0,0,1-17,6h-3a39,39,0,0,0,21,6c25,0,39-21,39-39a14,14,0,0,0,0-2Z" transform="translate(-7 -3)" style="fill: #010101"/>
  <path d="M252,38a10,10,0,1,1,10-10h0a10,10,0,0,1-10,10h0m0-32a22,22,0,0,0-22,22h0c0,12,10,26,17,34l5,6,6-7c7-7,16-21,16-33A22,22,0,0,0,252,6h0" transform="translate(-7 -3)" style="fill: #010101"/>
  <path d="M339,14H329c-1,0-3,2-3,4v8h13V36H326V69H314V37H303V26h11V19c0-9,6-16,15-16h10Z" transform="translate(-7 -3)" style="fill: #010101"/>
  <g id="8af033f2-9df9-4522-9fb9-fb640e213ca8" data-name="RErdGX.tif">
    <g>
      <path d="M363,59V25h1l18,13,11,7h4l5-2,24-17h2V59c-2,4-3,4-7,4H370C366,63,364,62,363,59Z" transform="translate(-7 -3)" style="fill: #010101"/>
      <path d="M428,13v4l-5,4L401,37a8,8,0,0,1-10,0c-10-6-19-13-28-20V13c1-3,3-4,6-4h54a5,5,0,0,1,5,3Z" transform="translate(-7 -3)" style="fill: #010101"/>
    </g>
  </g>
  <path d="M472,40c-6,6-13,12-16,9s-6-7-15,0-2,11,2,15,21,0,37-16,20-32,16-37-8-10-15-2-4,11,0,15S478,34,472,40Z" transform="translate(-7 -3)" style="fill: #010101"/>
  <path d="M511,26c2-2,6-3,9,0l21,20,21-20c3-3,6-2,9,0a6,6,0,0,1,0,9L545,59l-4,2-4-2L511,34A6,6,0,0,1,511,26Z" transform="translate(-7 -3)" style="fill: #010101"/>
  <path d="M637,23h3a2,2,0,0,1,0,3L613,54h-3L582,26a2,2,0,0,1,0-3h3l26,25Z" transform="translate(-7 -3)" style="fill: #010101"/>
  <path d="M707,62a6,6,0,0,1-9,0L684,46,670,62a6,6,0,1,1-9-9l15-17L661,20a6,6,0,0,1,9-9l14,16,14-16a6,6,0,1,1,9,9L692,36l15,17A6,6,0,0,1,707,62Z" transform="translate(-7 -3)" style="fill: #010101"/>
  <path d="M738,37l20,10L738,57Zm20-10,20,10V16Zm0,44,20-10V37L758,47Zm0-68L738,13V37l20-10Z" transform="translate(-7 -3)" style="fill: #010101"/>
  <path d="M20,85a6,6,0,0,1-7,7,6,6,0,0,1-7-6,7,7,0,0,1,7-7A6,6,0,0,1,20,85ZM7,137H20V95H7ZM51,96a14,14,0,0,0-12,7h0V97H26c0,4,0,8,0,13v28H39V114a10,10,0,0,1,0-3c1-2,3-5,6-5s7,4,7,9v22H65V113C65,101,59,96,51,96Z" transform="translate(-7 -3)" style="fill: #010101"/>
  <path d="M136,103H81c-2,0-3,2-3,4s0,4,3,4h55c2,0,3-2,3-4S138,103,136,103Zm0,17H81c-2,0-3,2-3,4s0,4,3,4h55c2,0,3-2,3-4S138,120,136,120ZM81,94h55c2,0,3-2,3-4s0-4-3-4H81c-2,0-3,2-3,4S78,94,81,94Z" transform="translate(-7 -3)" style="fill: #010101"/>
  <path d="M180,79a29,29,0,1,0,29,29A29,29,0,0,0,180,79Zm2,36-4-2c-1,4-2,8-5,10s1-11,2-16,0-9,4-7-4,11,2,12,8-10,5-14-16,0-14,8,2,2,1,5-4-3-4-7,5-10,10-11,12,2,13,8S188,116,182,115Z" transform="translate(-7 -3)" style="fill: #010101"/>
  <path d="M283,108c0,3,0,5-3,5H257v23c0,3-2,3-5,3s-5,0-5-3V113H224c-3,0-3-2-3-5s0-5,3-5h23V79c0-3,2-3,5-3s5,0,5,3v23h23C283,102,283,105,283,108Z" transform="translate(-7 -3)" style="fill: #010101"/>
  <path d="M344,122l-6,3-23-14v-5l23-13a10,10,0,1,0-3-7v2l-23,13a10,10,0,1,0,0,14l23,14v2a10,10,0,1,0,10-10Z" transform="translate(-7 -3)" style="fill: #010101"/>
  <path d="M425,96h-8c-6-4-13-6-21-6s-15,2-21,6h-8a14,14,0,0,1,3,6,15,15,0,0,0-3,9,15,15,0,0,0,25,11l5,7,5-7a15,15,0,0,0,22-19A14,14,0,0,1,425,96Zm-44,25a10,10,0,1,1,10-10A10,10,0,0,1,381,120Zm15-10a15,15,0,0,0-12-14l12-2,12,2A15,15,0,0,0,396,110Zm15,10a10,10,0,1,1,10-10A10,10,0,0,1,410,120Zm-29-16a6,6,0,1,0,6,6A6,6,0,0,0,381,104Zm0,8a2,2,0,1,1,2-2A2,2,0,0,1,381,112Zm30-8a6,6,0,1,0,6,6A6,6,0,0,0,410,104Zm0,8a2,2,0,1,1,2-2A2,2,0,0,1,410,112Z" transform="translate(-7 -3)" style="fill: #010101"/>
  <path d="M468,79a30,30,0,1,0,30,30A30,30,0,0,0,468,79Zm14,24c-2,9-10,17-13,18s-5-1-6-3-4-14-5-15-3,1-3,1v-2s5-6,8-7,4,6,5,10,2,6,2,6,2-2,4-5,0-6-3-4S483,94,482,103Z" transform="translate(-7 -3)" style="fill: #010101"/>
  <path d="M540,81c-34,0-35,3-35,27s1,27,35,27,35-3,35-27S574,81,540,81Zm11,28-16,7a2,2,0,0,1-2-2V101a2,2,0,0,1,2-2l16,7C552,107,552,109,551,109Z" transform="translate(-7 -3)" style="fill: #010101"/>
  <path d="M645,106,630,91a4,4,0,0,0-5,0,4,4,0,0,0,0,5l9,9H581c-5,0-5,8,0,8h52l-9,9a4,4,0,0,0,0,5,4,4,0,0,0,5,0l15-16a4,4,0,0,0,0-5Z" transform="translate(-7 -3)" style="fill: #010101"/>
  <path d="M651,112l15,16a4,4,0,0,0,5,0,4,4,0,0,0,0-5l-9-9h52c5,0,5-8,0-8H662l9-9a4,4,0,0,0,0-5,4,4,0,0,0-5,0l-15,16a4,4,0,0,0,0,5Z" transform="translate(-7 -3)" style="fill: #010101"/>
  <g id="7c60556e-d889-4e3c-9f48-69da17eafef8" data-name="aRlEBI.tif">
    <g>
      <path d="M7,45V26H7a31,31,0,0,1,1-7A15,15,0,0,1,17,9l8-2H53a15,15,0,0,1,10,9,22,22,0,0,1,2,8V45h0a31,31,0,0,1-1,7,15,15,0,0,1-9,10l-8,2H19A15,15,0,0,1,9,55a22,22,0,0,1-2-8Zm52-9h0c0-2,0-5,0-7s0-5,0-7a10,10,0,0,0-2-6,10,10,0,0,0-8-3H22l-6,2a10,10,0,0,0-3,8c0,3,0,7,0,10s0,7,0,10,0,5,0,7a10,10,0,0,0,2,6,10,10,0,0,0,8,3H51a9,9,0,0,0,8-7,19,19,0,0,0,1-4C59,44,59,40,60,36Z" transform="translate(-7 -3)"/>
      <path d="M51,36A15,15,0,1,1,36,21,15,15,0,0,1,51,36ZM36,45A10,10,0,1,0,26,36,10,10,0,0,0,36,45Z" transform="translate(-7 -3)"/>
      <path d="M51,17a3,3,0,1,1,0,7,3,3,0,0,1,0-7Z" transform="translate(-7 -3)"/>
    </g>
  </g>
</svg>
