<?xml version="1.0" encoding="utf-8"?>
<!-- Generator: Adobe Illustrator 21.0.0, SVG Export Plug-In . SVG Version: 6.00 Build 0)  -->
<svg version="1.1" id="Layer_1" xmlns="http://www.w3.org/2000/svg" xmlns:xlink="http://www.w3.org/1999/xlink" x="0px" y="0px"
	 viewBox="0 0 800 600" style="enable-background:new 0 0 800 600;" xml:space="preserve">
<style type="text/css">
	.st0{fill:#010101;}
</style>
<g>
	<g>
		<path class="st0" d="M134.2,36.2c-0.7-3-3.1-5.1-6-5.5c-6.9-0.8-13.8-0.8-20.8-0.8c-6.9,0-13.9,0-20.8,0.8c-2.9,0.3-5.3,2.5-6,5.5
			c-1,4.2-1,8.8-1,13.1s0,8.9,1,13.1c0.7,2.9,3.1,5.1,6,5.5c6.9,0.8,13.8,0.8,20.8,0.8c6.9,0,13.9,0,20.8-0.8c2.9-0.3,5.3-2.5,6-5.5
			c1-4.2,1-8.8,1-13.1C135.1,45,135.1,40.4,134.2,36.2z M95.5,39.4h-4v21.3h-3.7V39.4h-3.9v-3.5h11.7V39.4z M105.6,60.8h-3.4v-2
			c-1.3,1.5-2.6,2.3-3.8,2.3c-1.1,0-1.8-0.4-2.2-1.4c-0.2-0.6-0.3-1.4-0.3-2.8V42.3h3.4v13.6c0,0.8,0,1.2,0,1.3
			c0.1,0.5,0.3,0.8,0.8,0.8c0.7,0,1.4-0.5,2.1-1.6V42.3h3.4L105.6,60.8L105.6,60.8z M118.4,55.2c0,1.7-0.1,2.9-0.3,3.7
			c-0.4,1.4-1.3,2.1-2.7,2.1c-1.2,0-2.3-0.7-3.5-2v1.8h-3.4V35.9h3.4V44c1.1-1.3,2.2-2,3.5-2c1.3,0,2.2,0.7,2.7,2.1
			c0.2,0.7,0.3,2,0.3,3.7V55.2z M131,52.1h-6.7v3.3c0,1.7,0.6,2.6,1.7,2.6c0.8,0,1.3-0.4,1.5-1.3c0-0.2,0.1-0.9,0.1-2.3h3.4v0.5
			c0,1.1,0,1.8-0.1,2.2c-0.1,0.7-0.4,1.4-0.8,2c-0.9,1.3-2.3,2-4.1,2c-1.8,0-3.1-0.6-4.1-1.9c-0.7-0.9-1.1-2.4-1.1-4.4v-6.5
			c0-2,0.3-3.4,1-4.4c1-1.3,2.3-1.9,4-1.9c1.7,0,3,0.6,4,1.9c0.7,0.9,1,2.4,1,4.4L131,52.1L131,52.1z"/>
		<path class="st0" d="M126,45c-1.1,0-1.7,0.9-1.7,2.6v1.7h3.4v-1.7C127.6,45.9,127.1,45,126,45z"/>
		<path class="st0" d="M113.5,45c-0.6,0-1.1,0.3-1.7,0.8v11.3c0.6,0.6,1.1,0.8,1.7,0.8c1,0,1.5-0.8,1.5-2.5v-7.9
			C115,45.9,114.5,45,113.5,45z"/>
		<path class="st0" d="M115.4,28.2c1.2,0,2.5-0.8,3.9-2.3v2h3.4V9.3h-3.4v14.3c-0.8,1.1-1.5,1.6-2.1,1.6c-0.5,0-0.7-0.3-0.8-0.8
			c0-0.1,0-0.5,0-1.3V9.3h-3.4v14.8c0,1.3,0.1,2.2,0.3,2.8C113.6,27.8,114.3,28.2,115.4,28.2z"/>
		<path class="st0" d="M91.8,17.8V28h3.8V17.8l4.5-14.9h-3.8l-2.6,9.9l-2.7-9.9h-4c0.8,2.3,1.6,4.7,2.4,7
			C90.7,13.4,91.5,16,91.8,17.8z"/>
		<path class="st0" d="M105.1,28.2c1.7,0,3-0.6,4-1.9c0.7-0.9,1.1-2.4,1.1-4.4v-6.5c0-2-0.3-3.5-1.1-4.4c-0.9-1.3-2.3-1.9-4-1.9
			c-1.7,0-3,0.6-3.9,1.9c-0.7,0.9-1.1,2.4-1.1,4.4v6.5c0,2,0.3,3.5,1.1,4.4C102.1,27.6,103.5,28.2,105.1,28.2z M103.5,14.7
			c0-1.7,0.5-2.6,1.6-2.6s1.6,0.9,1.6,2.6v7.9c0,1.7-0.5,2.6-1.6,2.6s-1.6-0.9-1.6-2.6V14.7z"/>
	</g>
</g>
<path class="st0" d="M213.8,15.3c-2.5,1.1-5.1,1.8-7.9,2.2c2.9-1.7,5-4.4,6.1-7.6c-2.6,1.6-5.6,2.7-8.8,3.4
	c-2.5-2.7-6.1-4.4-10.1-4.4c-7.6,0-13.8,6.2-13.8,13.8c0,1.1,0.1,2.1,0.4,3.1c-11.5-0.6-21.6-6.1-28.4-14.4c-1.2,2-1.9,4.4-1.9,6.9
	c0,4.8,2.4,9,6.1,11.5c-2.3-0.1-4.4-0.7-6.2-1.8c0,0.1,0,0.1,0,0.1c0,6.7,4.8,12.3,11,13.5c-1.2,0.3-2.3,0.5-3.7,0.5
	c-0.9,0-1.8-0.1-2.6-0.2c1.8,5.5,6.9,9.5,12.9,9.6c-4.8,3.7-10.7,5.9-17.1,5.9c-1.1,0-2.2-0.1-3.3-0.2c6.1,3.9,13.4,6.2,21.1,6.2
	c25.4,0,39.3-21.1,39.3-39.3c0-0.6,0-1.2-0.1-1.8C209.6,20.5,211.9,18.1,213.8,15.3z"/>
<path class="st0" d="M251.6,37.5c-5.4,0-10-4.3-10-10c0-5.4,4.3-10,10-10c5.4,0,10,4.3,10,10l0,0C261.6,33.2,257,37.5,251.6,37.5
	L251.6,37.5 M251.6,5.6c-12.2,0-21.9,10-21.9,22.2l0,0c0,11.5,10,26.3,16.5,33.7c2.4,2.6,5.4,6.3,5.4,6.3s3-3.7,5.6-6.5
	c6.7-7,16.1-20.9,16.1-33.5C273.5,15.6,263.8,5.6,251.6,5.6L251.6,5.6"/>
<path class="st0" d="M341.5,17.4h-9.7c-1.2,0-2.4,1.5-2.4,3.5v7h12.1v9.9h-12.1v29.9H318V37.9h-10.4V28H318v-5.9
	c0-8.4,5.8-15.2,13.8-15.2h9.7V17.4z"/>
<g id="RErdGX.tif">
	<g>
		<g>
			<path class="st0" d="M363.1,58.9c0-11.2,0-22.3,0-33.5c0.4,0.2,0.7,0.4,1.1,0.7c6.2,4.4,12.2,9,18.5,13.2
				c3.6,2.4,7.4,4.4,11.2,6.5c1.1,0.6,2.4,0.6,3.6,0.1c1.6-0.7,3.3-1.5,4.8-2.4c8.5-5,16.3-10.9,24.1-16.8c0.6-0.5,1.3-0.9,2-1.3
				c0,11.1,0,22.2,0,33.3c-1.5,3.7-2.7,4.4-6.8,4.4c-17.3,0-34.7-0.1-52,0C366.3,63.2,364.2,62,363.1,58.9z"/>
			<path class="st0" d="M428.3,13.4c0,1.2,0,2.4,0,3.6c-1.6,1.3-3.3,2.6-4.9,3.8c-7.4,5.7-14.8,11.3-22.9,16.1c-3.3,2-6.2,2-9.6,0
				c-9.8-6-18.8-13-27.8-20.1c0-1.2,0-2.4,0-3.6c1-3.1,3.2-4.2,6.4-4.2c17.4,0.1,34.8,0,52.1,0c0.5,0,1,0,1.5,0
				c2.3,0.1,3.8,1.3,4.7,3.4C428,12.7,428.2,13.1,428.3,13.4z"/>
		</g>
	</g>
</g>
<path class="st0" d="M471.6,40.3c-5.9,5.9-12.8,11.6-15.5,8.9c-3.9-3.9-6.3-7.3-14.9-0.4c-8.6,6.9-2,11.5,1.8,15.3
	c4.4,4.4,20.6,0.2,36.6-15.8c16-16,20.1-32.3,15.8-36.6c-3.8-3.8-8.3-10.4-15.2-1.8c-6.9,8.6-3.5,11,0.4,14.9
	C483.2,27.4,477.6,34.3,471.6,40.3z"/>
<path class="st0" d="M510.7,25.5c2.4-2.4,5.6-2.6,8.5,0l21.1,20.2l21.1-20.2c2.9-2.6,6.2-2.4,8.5,0c2.4,2.4,2.2,6.5,0,8.7
	c-2.2,2.3-25.4,24.3-25.4,24.3c-1.2,1.2-2.7,1.8-4.3,1.8s-3.1-0.6-4.3-1.8c0,0-23.2-22.1-25.4-24.3C508.5,32,508.4,27.9,510.7,25.5z
	"/>
<path class="st0" d="M637.5,23.1c0.9-0.9,2.5-0.9,3.4,0c0.9,0.9,0.9,2.4,0,3.4l-27.6,27.3c-0.9,0.9-2.5,0.9-3.4,0l-27.6-27.3
	c-0.9-0.9-0.9-2.4,0-3.4c0.9-0.9,2.5-0.9,3.4,0L611.6,48L637.5,23.1z"/>
<path class="st0" d="M706.7,62.1c-2.5,2.5-6.5,2.5-9,0L683.6,46l-14.1,16.1c-2.5,2.5-6.5,2.5-9,0c-2.5-2.5-2.5-6.5,0-9l14.6-16.7
	l-14.6-16.7c-2.5-2.5-2.5-6.5,0-9c2.5-2.5,6.5-2.5,9,0l14.1,16.1l14.1-16.1c2.5-2.5,6.5-2.5,9,0c2.5,2.5,2.5,6.5,0,9L692,36.4
	l14.6,16.7C709.1,55.6,709.1,59.6,706.7,62.1z"/>
<path class="st0" d="M737.9,36.8L758.3,47l-20.4,10.2V36.8z M758.3,26.6l20.4,10.2V16.4L758.3,26.6z M758.3,70.8l20.4-10.2V36.8
	L758.3,47V70.8z M758.3,2.8L737.9,13v23.8l20.4-10.2V2.8z"/>
<path class="st0" d="M19.7,85.2c0,3.6-2.3,6.5-6.5,6.5c-3.9,0-6.5-2.9-6.5-6.2c0-3.6,2.6-6.8,6.5-6.8S19.7,81.6,19.7,85.2z
	 M6.7,137.3h13V95h-13V137.3z M51,95.6c-6.8,0-10.8,3.9-12.4,6.5h-0.3l-0.7-5.5H25.9c0,3.6,0.3,7.8,0.3,12.7v28h13v-23.1
	c0-1.3,0-2.3,0.3-3.3c1-2.3,2.6-5.2,6.2-5.2c4.6,0,6.5,3.9,6.5,9.1v22.5h13v-24.1C65.3,101.2,59.1,95.6,51,95.6z"/>
<path class="st0" d="M136,102.7H80.8c-2.4,0-2.6,1.9-2.6,4.3c0,2.4,0.2,4.3,2.6,4.3H136c2.4,0,2.6-1.9,2.6-4.3
	S138.4,102.7,136,102.7z M136,119.9H80.8c-2.4,0-2.6,1.9-2.6,4.3s0.2,4.3,2.6,4.3H136c2.4,0,2.6-1.9,2.6-4.3S138.4,119.9,136,119.9z
	 M80.8,94.1H136c2.4,0,2.6-1.9,2.6-4.3c0-2.4-0.2-4.3-2.6-4.3H80.8c-2.4,0-2.6,1.9-2.6,4.3C78.2,92.1,78.4,94.1,80.8,94.1z"/>
<path class="st0" d="M179.6,79.1c-16.1,0-29.1,13-29.1,29.1s13,29.1,29.1,29.1s29.1-13,29.1-29.1S195.7,79.1,179.6,79.1z
	 M181.6,115.1c-1.9-0.1-2.7-1.1-4.1-2c-0.8,4.2-1.8,8.3-4.7,10.4c-0.9-6.4,1.3-11.2,2.3-16.3c-1.8-3,0.2-8.9,3.9-7.4
	c4.6,1.8-4,11,1.8,12.2c6,1.2,8.4-10.4,4.7-14.1c-5.3-5.4-15.6-0.1-14.3,7.6c0.3,1.9,2.3,2.5,0.8,5.1c-3.4-0.8-4.4-3.5-4.3-7.1
	c0.2-5.9,5.3-10,10.4-10.6c6.4-0.7,12.5,2.4,13.3,8.4C192.3,108.2,188.5,115.6,181.6,115.1z"/>
<path class="st0" d="M283.3,107.7c0,2.9-0.3,5.2-3.1,5.2h-23v23c0,2.9-2.3,3.1-5.2,3.1s-5.2-0.3-5.2-3.1v-23h-23
	c-2.9,0-3.1-2.3-3.1-5.2c0-2.9,0.3-5.2,3.1-5.2h23v-23c0-2.9,2.3-3.1,5.2-3.1s5.2,0.3,5.2,3.1v23h23
	C283.1,102.5,283.3,104.8,283.3,107.7z"/>
<path class="st0" d="M344.2,121.7c-2.5,0-4.7,1-6.4,2.5l-23.3-13.6c0.2-0.7,0.3-1.5,0.3-2.3c0-0.8-0.1-1.5-0.3-2.3l23-13.4
	c1.7,1.6,4.1,2.6,6.7,2.6c5.4,0,9.8-4.4,9.8-9.8c0-5.4-4.4-9.8-9.8-9.8c-5.4,0-9.8,4.4-9.8,9.8c0,0.8,0.1,1.6,0.3,2.3l-23,13.4
	c-1.7-1.6-4.1-2.6-6.7-2.6c-5.4,0-9.8,4.4-9.8,9.8s4.4,9.8,9.8,9.8c2.6,0,4.9-1,6.7-2.6l23.3,13.6c-0.2,0.7-0.3,1.4-0.3,2.1
	c0,5.3,4.3,9.5,9.5,9.5s9.5-4.3,9.5-9.5C353.7,126,349.5,121.7,344.2,121.7z"/>
<path class="st0" d="M425.2,95.6h-8.3c-5.8-3.9-12.9-5.9-21.2-5.9s-15.4,2-21.2,5.9h-8.3c1.3,1.2,2.4,4,2.9,6
	c-1.8,2.5-2.9,5.5-2.9,8.7c0,8.1,6.6,14.8,14.8,14.8c3.9,0,7.5-1.6,10.1-4.1l4.7,7l4.7-7c2.6,2.5,6.2,4.1,10.1,4.1
	c8.1,0,14.8-6.6,14.8-14.8c0-3.3-1.1-6.3-2.9-8.7C422.8,99.6,423.9,96.9,425.2,95.6z M381,120.4c-5.5,0-10-4.5-10-10s4.5-10,10-10
	s10,4.5,10,10S386.5,120.4,381,120.4z M395.7,110.4c0-7.1-5.1-13.1-11.8-14.5c3.5-1.2,7.5-1.8,11.8-1.8s8.3,0.6,11.8,1.8
	C400.8,97.3,395.7,103.2,395.7,110.4z M410.5,120.4c-5.5,0-10-4.5-10-10s4.5-10,10-10s10,4.5,10,10S416,120.4,410.5,120.4z M381,104
	c-3.5,0-6.3,2.8-6.3,6.3c0,3.5,2.8,6.3,6.3,6.3c3.5,0,6.3-2.8,6.3-6.3C387.3,106.9,384.5,104,381,104z M381,112.3
	c-1.1,0-1.9-0.9-1.9-1.9s0.9-1.9,1.9-1.9s1.9,0.9,1.9,1.9S382,112.3,381,112.3z M410.5,104c-3.5,0-6.3,2.8-6.3,6.3
	c0,3.5,2.8,6.3,6.3,6.3c3.5,0,6.3-2.8,6.3-6.3C416.8,106.9,414,104,410.5,104z M410.5,112.3c-1.1,0-1.9-0.9-1.9-1.9s0.9-1.9,1.9-1.9
	s1.9,0.9,1.9,1.9S411.5,112.3,410.5,112.3z"/>
<path class="st0" d="M468.2,79.2c-16.5,0-29.8,13.3-29.8,29.8s13.3,29.8,29.8,29.8c16.5,0,29.8-13.3,29.8-29.8
	S484.7,79.2,468.2,79.2z M481.9,103.3c-1.6,9.1-10.4,16.7-13,18.5c-2.7,1.7-5.1-0.7-5.9-2.6c-1-2.1-4-13.6-4.8-14.5
	c-0.8-1-3.2,1-3.2,1l-1.1-1.5c0,0,4.8-5.8,8.5-6.6c3.9-0.8,3.9,6.1,4.8,9.9c0.9,3.7,1.5,5.8,2.3,5.8c0.8,0,2.3-2,3.9-5.2
	c1.7-3.1-0.1-5.9-3.3-3.9C471.2,96.1,483.4,94.2,481.9,103.3z"/>
<path class="st0" d="M540,81.4c-33.9,0-34.5,3-34.5,26.6s0.6,26.6,34.5,26.6s34.5-3,34.5-26.6S573.9,81.4,540,81.4z M551.1,109.2
	l-15.5,7.2c-1.4,0.6-2.5-0.1-2.5-1.6v-13.6c0-1.5,1.1-2.2,2.5-1.6l15.5,7.2C552.4,107.5,552.4,108.5,551.1,109.2z"/>
<path class="st0" d="M645.2,106.4c0,0-13.7-14.4-15.1-15.7c-1.4-1.4-3.9-1.5-5.4,0c-1.5,1.4-1.6,3.5,0,5.3l8.8,9.2
	c-17.4,0-34.8,0-52.2,0c-5,0-5,7.7,0,7.7c17.4,0,34.8,0,52.1,0l-8.8,9.2c-1.6,1.8-1.5,3.8,0,5.3c1.5,1.5,4,1.4,5.4,0
	c1.4-1.4,15.1-15.7,15.1-15.7c0.7-0.7,1.1-1.7,1.1-2.6C646.3,108,645.9,107.1,645.2,106.4z"/>
<path class="st0" d="M650.8,111.6c0,0,13.7,14.4,15.1,15.7c1.4,1.4,3.9,1.5,5.4,0c1.5-1.4,1.6-3.5,0-5.3l-8.8-9.2
	c17.4,0,34.8,0,52.2,0c5,0,5-7.7,0-7.7c-17.4,0-34.8,0-52.1,0l8.8-9.2c1.6-1.8,1.5-3.8,0-5.3c-1.5-1.5-4-1.4-5.4,0
	c-1.4,1.4-15.1,15.7-15.1,15.7c-0.7,0.7-1.1,1.7-1.1,2.6S650.1,110.9,650.8,111.6z"/>
<g id="aRlEBI.tif">
	<g>
		<g>
			<path d="M10.3,45.5c0-6,0-12,0-18c0-0.2,0.1-0.3,0.1-0.5c0.1-2.1,0.2-4.2,0.7-6.3c1.2-4.7,3.9-8,8.3-10c2.4-1,5-1.3,7.6-1.4
				c0.6,0,1.1-0.1,1.7-0.1c6,0,12,0,18,0c0.2,0,0.3,0.1,0.5,0.1c2.1,0.1,4.2,0.2,6.3,0.7c4.7,1.2,8,3.9,10,8.3c1,2.4,1.3,5,1.4,7.6
				c0,0.6,0.1,1.1,0.1,1.7c0,6,0,12,0,18c0,0.2-0.1,0.3-0.1,0.5c-0.1,2.1-0.2,4.2-0.7,6.3c-1.2,4.7-3.9,8-8.3,10
				c-2.4,1-5,1.3-7.6,1.4c-0.6,0-1.1,0.1-1.7,0.1c-6,0-12,0-18,0c-0.2,0-0.3-0.1-0.5-0.1c-2.1-0.1-4.2-0.2-6.3-0.7
				c-4.7-1.2-8-3.9-10-8.3c-1-2.4-1.3-5-1.4-7.6C10.4,46.6,10.4,46,10.3,45.5z M60.1,36.5C60.1,36.5,60.1,36.5,60.1,36.5
				c-0.1-2.3,0-4.6-0.1-6.8c-0.1-2.1-0.1-4.3-0.4-6.4c-0.2-2-0.9-3.9-2.3-5.5c-1.9-2.2-4.5-3.2-7.3-3.3c-3.2-0.2-6.4-0.2-9.6-0.3
				c-3.2,0-6.4,0-9.6,0c-2.1,0-4.3,0.1-6.4,0.4c-2,0.2-3.9,0.9-5.5,2.3c-2.2,1.9-3.2,4.5-3.3,7.3c-0.2,3.2-0.2,6.4-0.3,9.6
				c0,3.2,0,6.4,0,9.6c0,2.1,0.1,4.3,0.4,6.4c0.2,2,0.9,3.9,2.3,5.5c1.9,2.2,4.5,3.2,7.3,3.3c3.2,0.2,6.4,0.2,9.6,0.3
				c3.2,0,6.4,0,9.6,0c2.4-0.1,4.7-0.1,7.1-0.5c4-0.6,6.7-2.9,7.7-6.9c0.3-1.3,0.5-2.6,0.6-4C60,43.8,60,40.2,60.1,36.5z"/>
			<path d="M51.7,36.5c0,7.8-6.3,14-14.1,14c-7.7,0-14-6.3-14-14.1c0-7.8,6.3-14.1,14.1-14C45.4,22.4,51.7,28.7,51.7,36.5z
				 M37.7,45.6c5,0,9.1-4.1,9.1-9c0-5.1-4-9.2-9-9.2c-5.1,0-9.2,4-9.2,9.1C28.6,41.5,32.6,45.6,37.7,45.6z"/>
			<path d="M52.2,18.6c1.8,0,3.3,1.5,3.3,3.3c0,1.8-1.5,3.3-3.3,3.3c-1.8,0-3.3-1.5-3.3-3.3C49,20.1,50.4,18.6,52.2,18.6z"/>
		</g>
	</g>
</g>
<path class="st0" d="M784.4,76.6h-48.9c-3.8,0-7,3.1-7,7v48.9c0,3.8,3.1,7,7,7H760V115h-7v-8.6h7v-7.2c0-7.6,4.2-12.9,13.1-12.9
	l6.3,0v9.1h-4.2c-3.5,0-4.8,2.6-4.8,5v5.9h9l-2,8.6h-7v24.4h14c3.8,0,7-3.1,7-7V83.6C791.4,79.7,788.3,76.6,784.4,76.6z"/>
<path class="st0" d="M35.8,147.9l8.5,24h22.9L48.6,186l6.7,24.8l-19.4-14.8l-19.4,14.8l6.7-24.8L4.4,171.9h22.9L35.8,147.9z"/>
</svg>
