<?xml version="1.0" encoding="utf-8"?>
<!-- Generator: Adobe Illustrator 19.2.1, SVG Export Plug-In . SVG Version: 6.00 Build 0)  -->
<svg version="1.1" id="b88c6d6e-7f40-484d-980c-b5cf8dabfc33"
	 xmlns="http://www.w3.org/2000/svg" xmlns:xlink="http://www.w3.org/1999/xlink" x="0px" y="0px" viewBox="0 0 20.2 28.6"
	 style="enable-background:new 0 0 20.2 28.6;" xml:space="preserve">
<title>icon-map-red</title>
<path d="M10.1,14.7c-2.5,0-4.6-2-4.6-4.6c0-2.5,2-4.6,4.6-4.6c2.5,0,4.6,2,4.6,4.6c0,0,0,0,0,0C14.7,12.7,12.6,14.7,10.1,14.7
	L10.1,14.7 M10.1,0C4.5,0,0,4.6,0,10.2v0c0,5.3,4.6,12.1,7.6,15.5c1.1,1.2,2.5,2.9,2.5,2.9s1.4-1.7,2.6-3c3.1-3.2,7.4-9.6,7.4-15.4
	C20.2,4.6,15.7,0,10.1,0C10.1,0,10.1,0,10.1,0"/>
</svg>
